PathFileType	4	(X/Y/Z)	C:/Users/opensim2020/Desktop/walking_exp_matlab/subject06_walking14_straight_02.trc	
DataRate	CameraRate	NumFrames	NumMarkers	Units	OrigDataRate	OrigDataStartFrame	OrigNumFrames	
100.00	100.00	4	45	mm	100.00	1700	192	
Frame#	Time	LFHD			RFHD			LBHD			RBHD			C7			T10			CLAV			STRN			RBAK			LSHO			LUPA			LELB			LFRM			LWRA			LWRB			LFIN			RSHO			RUPA			RELB			RFRM			RWRA			RWRB			RFIN			LASI			RASI			LPSI			RPSI			LTHI			LKNE			LTIB			LANK			LHEE			LTOE			RTHI			RKNE			RTIB			RANK			RHEE			RTOE			*39			*40			*41			*42			*43			*44			
		X1	Y1	Z1	X2	Y2	Z2	X3	Y3	Z3	X4	Y4	Z4	X5	Y5	Z5	X6	Y6	Z6	X7	Y7	Z7	X8	Y8	Z8	X9	Y9	Z9	X10	Y10	Z10	X11	Y11	Z11	X12	Y12	Z12	X13	Y13	Z13	X14	Y14	Z14	X15	Y15	Z15	X16	Y16	Z16	X17	Y17	Z17	X18	Y18	Z18	X19	Y19	Z19	X20	Y20	Z20	X21	Y21	Z21	X22	Y22	Z22	X23	Y23	Z23	X24	Y24	Z24	X25	Y25	Z25	X26	Y26	Z26	X27	Y27	Z27	X28	Y28	Z28	X29	Y29	Z29	X30	Y30	Z30	X31	Y31	Z31	X32	Y32	Z32	X33	Y33	Z33	X34	Y34	Z34	X35	Y35	Z35	X36	Y36	Z36	X37	Y37	Z37	X38	Y38	Z38	X39	Y39	Z39	X40	Y40	Z40	X41	Y41	Z41	X42	Y42	Z42	X43	Y43	Z43	X44	Y44	Z44	X45	Y45	Z45	

121	1.200	-952.22351	-263.79114	1671.03271	-1083.64429	-273.68341	1663.20142	-962.61926	-133.31293	1610.64319	-1092.06323	-144.74327	1608.46704	-1019.61987	-144.34991	1454.76208	-1033.64221	-114.47279	1127.09619	-1017.43890	-256.80664	1380.54041	-1012.85614	-297.20724	1204.65393	-1104.16089	-77.31542	1286.29114	-856.70355	-194.85446	1407.80603	-793.90942	-190.37781	1201.46484	-788.60675	-186.99907	1088.19690	-763.68463	-219.59138	941.75726	-790.66974	-302.86191	837.84003	-769.76837	-236.60129	823.42542	-756.55811	-288.24802	750.69336	-1180.14233	-217.14238	1414.11084	-1274.65784	-181.37149	1218.79797	-1291.59338	-194.37183	1098.25012	-1308.42725	-234.50946	986.05109	-1272.38037	-325.81604	867.08539	-1314.99182	-275.15860	855.16412	-1314.23364	-329.57858	790.51068	-921.46198	-289.30289	965.74353	-1141.43164	-296.29703	975.34882	-952.41986	-131.18416	990.50812	-1120.50745	-143.23392	1000.40350	-866.75562	-275.85910	651.84845	-885.91418	-316.75085	494.18060	-888.97986	-161.76752	301.73874	-922.92572	-59.10695	162.72925	-970.59155	-18.92155	169.63461	-917.10571	-156.79370	58.16140	-1192.37427	-244.78285	638.44122	-1165.23230	-250.50629	512.99866	-1156.05334	-189.59872	250.77115	-1101.84973	-166.37593	67.24216	-1057.97107	-125.57163	44.06272	-1098.09045	-320.73859	30.97560	-1017.90466	-166.49780	1706.61182															 
122	1.210	-951.85010	-273.44351	1670.85022	-1083.28931	-283.65274	1662.97595	-962.62616	-142.85228	1610.75024	-1091.97791	-154.54758	1608.61304	-1019.83014	-153.86732	1454.65601	-1034.08142	-123.75169	1127.01294	-1017.31018	-266.27701	1380.42627	-1013.02374	-306.61856	1204.56567	-1104.42236	-86.88312	1286.36401	-856.68585	-203.84073	1407.73279	-793.89459	-196.75470	1201.52161	-788.58337	-191.44446	1088.39563	-763.42859	-220.02127	941.34100	-789.39423	-300.57156	834.80286	-769.05878	-233.67924	822.49231	-755.88702	-282.90421	747.90118	-1180.05713	-226.58417	1414.23962	-1275.42285	-192.11334	1219.09058	-1292.86023	-206.38376	1098.92725	-1309.48376	-249.44502	987.97412	-1272.79651	-344.03162	871.92853	-1315.72253	-293.90359	858.54413	-1314.83813	-350.25174	795.52832	-922.11353	-298.92905	965.99530	-1141.90369	-305.29248	974.95587	-952.67468	-140.76465	990.54266	-1120.60547	-153.11012	999.81659	-866.70709	-288.64526	653.10907	-886.40997	-332.23544	496.08746	-888.60870	-183.54558	297.99405	-922.10248	-86.18569	154.98595	-969.42743	-45.41911	159.93184	-916.55298	-188.89148	55.45433	-1192.14722	-251.36725	637.83826	-1165.44763	-255.46815	512.22852	-1155.74170	-191.86391	250.59799	-1102.00122	-166.34088	67.67908	-1057.74390	-125.69570	44.55758	-1098.20459	-320.93304	30.88849	-1017.68481	-176.45114	1706.63745															 
123	1.220	-951.54456	-283.21426	1670.43701	-1082.90906	-293.61365	1662.72144	-962.49481	-152.48273	1610.69104	-1091.87573	-164.45131	1608.51196	-1020.01227	-163.13728	1454.49072	-1034.71204	-133.03578	1126.88647	-1017.22333	-275.64447	1380.18311	-1013.19446	-315.99615	1204.35706	-1104.76892	-96.29845	1286.21375	-856.74286	-212.67786	1407.41431	-793.73132	-203.15718	1201.53931	-788.51855	-195.90648	1088.54126	-762.88770	-220.91023	940.90839	-788.07922	-298.46283	832.05939	-768.46838	-231.09039	821.73639	-754.80072	-277.52664	745.53528	-1179.93372	-236.10052	1414.28357	-1276.07214	-202.73538	1219.37573	-1294.02185	-218.31326	1099.54041	-1310.48364	-264.23007	989.93201	-1273.12769	-362.01968	876.86639	-1316.01599	-312.92108	861.92804	-1315.04236	-370.94757	800.81006	-922.68091	-308.56375	966.20148	-1142.26428	-314.36316	974.50751	-952.97656	-150.19711	990.48224	-1121.01160	-162.26811	999.43256	-866.62372	-301.43402	654.39368	-886.82861	-347.25375	497.94714	-888.43597	-205.63422	294.09760	-921.35608	-114.00175	146.85471	-968.42444	-72.61372	149.94557	-916.19727	-221.66690	52.78261	-1191.87512	-258.02560	637.12408	-1165.44946	-260.63766	511.39731	-1155.46875	-194.23457	250.44974	-1101.47388	-166.63348	67.87679	-1057.34888	-126.08084	44.61649	-1098.27808	-321.09531	30.79590	-1017.54279	-186.33374	1706.56653															 
124	1.230	-951.17841	-292.87888	1670.10242	-1082.41125	-303.26056	1662.35522	-962.26166	-162.05872	1610.57800	-1091.73596	-174.20883	1608.35657	-1019.93579	-172.59900	1454.23523	-1035.11536	-142.49594	1126.54919	-1017.03967	-285.11313	1379.92883	-1013.29443	-325.39752	1204.08972	-1105.02441	-105.83375	1285.97583	-856.61102	-221.66518	1407.12122	-793.53210	-209.49004	1201.47681	-788.36469	-200.43977	1088.66528	-762.26239	-221.79550	940.59253	-786.70306	-296.47772	829.56927	-767.55219	-228.53009	821.25348	-754.18365	-272.72971	743.36023	-1179.73438	-245.59872	1414.27515	-1276.38867	-212.86536	1219.55164	-1295.09265	-230.12935	1100.10864	-1311.34338	-278.88318	991.91235	-1273.36841	-379.73199	881.93481	-1316.41882	-331.16931	865.45392	-1315.46448	-390.91238	806.12097	-923.20520	-318.26083	966.38464	-1142.52246	-322.96051	973.66345	-953.25275	-159.71072	990.27063	-1121.68811	-170.81259	999.32440	-866.47205	-314.18054	655.63898	-887.14374	-361.67831	499.58618	-887.93176	-227.48610	289.91931	-920.75433	-142.38585	138.56578	-967.65771	-100.83710	139.56438	-915.50983	-254.87119	50.23651	-1191.50061	-265.60599	635.85425	-1165.28040	-266.13382	510.59326	-1155.14270	-196.98080	250.38264	-1101.45337	-166.58911	68.29628	-1057.19202	-126.36752	45.01230	-1098.24463	-321.32358	30.70584	-1017.28979	-196.20297	1706.39075															 
